<svg xmlns="http://www.w3.org/2000/svg" fill="none" viewBox="0 0 100 100"><path fill="#e24329" d="m50 96.118 18.413-56.67H31.587z"/><path fill="#fc6d26" d="M50 96.117 31.587 39.448H5.782z"/><path fill="#fca326" d="M5.782 39.448.187 56.67a3.81 3.81 0 0 0 1.384 4.262L50 96.117z"/><path fill="#e24329" d="M5.782 39.449h25.805L20.497 5.317c-.57-1.756-3.055-1.756-3.625 0z"/><path fill="#fc6d26" d="m50 96.117 18.413-56.669h25.805z"/><path fill="#fca326" d="m94.218 39.448 5.595 17.222a3.81 3.81 0 0 1-1.385 4.262L50 96.117z"/><path fill="#e24329" d="M94.218 39.449H68.413l11.09-34.132c.57-1.756 3.055-1.756 3.626 0z"/></svg>