<svg xmlns="http://www.w3.org/2000/svg" fill="none" viewBox="0 0 100 100"><path fill="#e535ab" fill-rule="evenodd" d="m58.973 11.444 20.534 11.857a9 9 0 0 1 2.02-1.599c4.259-2.448 9.69-.994 12.165 3.265 2.448 4.259.994 9.69-3.265 12.164a9 9 0 0 1-2.371.944v23.722c.822.2 1.612.516 2.346.938 4.284 2.474 5.738 7.906 3.264 12.165-2.448 4.258-7.906 5.712-12.165 3.264a8.8 8.8 0 0 1-2.2-1.787L58.89 88.161a9 9 0 0 1 .45 2.805c0 4.896-3.979 8.9-8.9 8.9a8.89 8.89 0 0 1-8.901-8.9c0-.875.126-1.72.36-2.518L21.37 76.595a9 9 0 0 1-1.991 1.57c-4.285 2.447-9.717.993-12.165-3.265-2.448-4.26-.994-9.691 3.264-12.165a9 9 0 0 1 2.346-.938V38.075a9 9 0 0 1-2.371-.944c-4.26-2.448-5.713-7.905-3.264-12.164 2.448-4.26 7.905-5.713 12.164-3.265.743.43 1.42.966 2.01 1.589l20.54-11.86a9 9 0 0 1-.363-2.53C41.54 3.978 45.518 0 50.44 0s8.9 3.978 8.9 8.9c0 .885-.128 1.739-.368 2.544m-2.14 3.653 20.584 11.885a8.9 8.9 0 0 0 .846 6.885 8.85 8.85 0 0 0 5.56 4.188v23.75q-.174.044-.345.092L56.594 15.335q.122-.117.24-.238m-12.541.244L17.408 61.9a9 9 0 0 0-.35-.093V38.054a8.85 8.85 0 0 0 5.56-4.187 8.9 8.9 0 0 0 .842-6.898l20.578-11.881q.124.129.254.253m8.635 2.109L79.804 64a8.9 8.9 0 0 0-2.505 4.345H23.582a9 9 0 0 0-.94-2.346 9 9 0 0 0-1.564-1.987l26.883-46.56c.806.232 1.64.35 2.48.348.862 0 1.697-.122 2.486-.35m4.095 67.52 20.45-11.807a9 9 0 0 1-.164-.584H23.57q-.043.174-.092.344l20.55 11.865a8.87 8.87 0 0 1 6.412-2.722 8.88 8.88 0 0 1 6.582 2.904" clip-rule="evenodd"/></svg>