<svg xmlns="http://www.w3.org/2000/svg" fill="none" viewBox="0 0 100 100"><path fill="#673ab8" d="m50.302 0 43.302 25v50l-43.302 25L7 75V25z"/><path fill="#fff" d="M18.795 74.587c5.756 7.368 24.05 1.754 41.322-11.74S87.262 32.96 81.506 25.59s-24.051-1.754-41.323 11.74-27.145 29.89-21.388 37.258m2.459-1.922c-1.91-2.443-1.075-7.24 2.562-13.28 3.83-6.358 10.332-13.378 18.288-19.594 7.957-6.216 16.34-10.827 23.438-13.005 6.739-2.068 11.595-1.717 13.504.727 1.91 2.443 1.075 7.24-2.562 13.28-3.83 6.358-10.331 13.378-18.288 19.594S41.856 71.214 34.76 73.392c-6.74 2.068-11.596 1.717-13.505-.727"/><path fill="#fff" d="M81.506 74.587c5.757-7.368-4.117-23.761-21.389-37.256-17.271-13.494-35.566-19.108-41.322-11.74s4.116 23.761 21.388 37.255 35.566 19.109 41.323 11.74m-2.46-1.922c-1.909 2.444-6.765 2.795-13.504.727-7.097-2.178-15.481-6.788-23.437-13.005-7.957-6.216-14.46-13.236-18.289-19.595-3.637-6.039-4.471-10.835-2.562-13.28 1.91-2.443 6.765-2.794 13.504-.726 7.097 2.178 15.481 6.789 23.438 13.005s14.458 13.236 18.288 19.595c3.638 6.038 4.472 10.835 2.562 13.279"/><path fill="#fff" d="M50.15 56.72a6.632 6.632 0 1 0 0-13.262 6.632 6.632 0 0 0 0 13.263"/></svg>