<svg xmlns="http://www.w3.org/2000/svg" fill="none" viewBox="0 0 100 100"><g clip-path="url(#a)"><path fill="url(#b)" d="M77.474 65.82 20.381 99.724l73.926-5.017L100 20.164z"/><path fill="url(#c)" d="M94.427 94.655 88.073 50.8 70.767 73.654z"/><path fill="url(#d)" d="m94.513 94.655-46.55-3.654-27.335 8.626z"/><path fill="url(#e)" d="M20.694 99.637 32.323 61.54l-25.59 5.47z"/><path fill="url(#f)" d="m70.762 73.78-10.7-41.912L29.44 60.572z"/><path fill="url(#g)" d="M97.572 32.458 68.627 8.818l-8.06 26.058z"/><path fill="url(#h)" d="M84.036.388 67.012 9.797 56.272.262z"/><path fill="url(#i)" d="m0 79.791 7.132-13.006-5.77-15.495z"/><path fill="#fff" d="m.98 50.8 5.804 16.464 25.22-5.658 28.794-26.76 8.127-25.812L56.13 0 34.376 8.141c-6.854 6.375-20.153 18.988-20.632 19.225C13.269 27.608 4.962 43.31.979 50.8"/><path fill="url(#j)" d="M21.36 21.223C36.214 6.495 55.363-2.206 62.712 5.21c7.344 7.414-.445 25.432-15.299 40.155s-33.765 23.904-41.11 16.49c-7.348-7.41.203-25.908 15.057-40.63"/><path fill="url(#k)" d="m20.694 99.622 11.538-38.218 38.318 12.31C56.695 86.706 41.286 97.69 20.694 99.622"/><path fill="url(#l)" d="m60.85 34.77 9.836 38.965c11.574-12.17 21.96-25.251 27.048-41.433z"/><path fill="url(#m)" d="M97.633 32.499c3.937-11.881 4.845-28.926-13.719-32.09L68.682 8.822z"/><path fill="#9e1209" d="M0 79.62c.545 19.609 14.692 19.9 20.719 20.073l-13.92-32.51z"/><path fill="url(#n)" d="M60.904 34.83c8.893 5.467 26.817 16.445 27.18 16.646.565.318 7.727-12.077 9.352-19.083z"/><path fill="url(#o)" d="M32.216 61.404 47.64 91.163c9.12-4.947 16.263-10.973 22.804-17.428z"/><path fill="url(#p)" d="M6.738 67.224 4.553 93.247C8.676 98.88 14.35 99.37 20.3 98.93 15.995 88.215 7.394 66.79 6.738 67.224"/><path fill="url(#q)" d="m68.592 8.888 30.641 4.3c-1.635-6.93-6.657-11.401-15.217-12.8z"/></g><defs><linearGradient id="b" x1="87.858" x2="66.786" y1="108.792" y2="71.533" gradientUnits="userSpaceOnUse"><stop stop-color="#fb7655"/><stop offset=".41" stop-color="#e42b1e"/><stop offset=".99" stop-color="#900"/><stop offset="1" stop-color="#900"/></linearGradient><linearGradient id="c" x1="98.367" x2="68.746" y1="77.504" y2="71.717" gradientUnits="userSpaceOnUse"><stop stop-color="#871101"/><stop offset=".99" stop-color="#911209"/><stop offset="1" stop-color="#911209"/></linearGradient><linearGradient id="d" x1="76.614" x2="76.232" y1="109.92" y2="91.132" gradientUnits="userSpaceOnUse"><stop stop-color="#871101"/><stop offset=".99" stop-color="#911209"/><stop offset="1" stop-color="#911209"/></linearGradient><linearGradient id="e" x1="19.531" x2="28.338" y1="64.296" y2="90.122" gradientUnits="userSpaceOnUse"><stop stop-color="#fff"/><stop offset=".23" stop-color="#e57252"/><stop offset=".46" stop-color="#de3b20"/><stop offset=".99" stop-color="#a60003"/><stop offset="1" stop-color="#a60003"/></linearGradient><linearGradient id="f" x1="48.52" x2="50.118" y1="38.72" y2="66.672" gradientUnits="userSpaceOnUse"><stop stop-color="#fff"/><stop offset=".23" stop-color="#e4714e"/><stop offset=".56" stop-color="#be1a0d"/><stop offset=".99" stop-color="#a80d00"/><stop offset="1" stop-color="#a80d00"/></linearGradient><linearGradient id="g" x1="74.246" x2="76.582" y1="12.881" y2="33.182" gradientUnits="userSpaceOnUse"><stop stop-color="#fff"/><stop offset=".18" stop-color="#e46342"/><stop offset=".4" stop-color="#c82410"/><stop offset=".99" stop-color="#a80d00"/><stop offset="1" stop-color="#a80d00"/></linearGradient><linearGradient id="h" x1="60.05" x2="63.343" y1="5.825" y2="-8.14" gradientUnits="userSpaceOnUse"><stop stop-color="#fff"/><stop offset=".54" stop-color="#c81f11"/><stop offset=".99" stop-color="#bf0905"/><stop offset="1" stop-color="#bf0905"/></linearGradient><linearGradient id="i" x1="1.97" x2="10.583" y1="57.313" y2="62.712" gradientUnits="userSpaceOnUse"><stop stop-color="#fff"/><stop offset=".31" stop-color="#de4024"/><stop offset=".99" stop-color="#bf190b"/><stop offset="1" stop-color="#bf190b"/></linearGradient><linearGradient id="j" x1="-9.365" x2="68.032" y1="78.284" y2="-1.528" gradientUnits="userSpaceOnUse"><stop stop-color="#bd0012"/><stop offset=".07" stop-color="#fff"/><stop offset=".17" stop-color="#fff"/><stop offset=".27" stop-color="#c82f1c"/><stop offset=".33" stop-color="#820c01"/><stop offset=".46" stop-color="#a31601"/><stop offset=".72" stop-color="#b31301"/><stop offset=".99" stop-color="#e82609"/><stop offset="1" stop-color="#e82609"/></linearGradient><linearGradient id="k" x1="50.005" x2="28.102" y1="86.324" y2="77.125" gradientUnits="userSpaceOnUse"><stop stop-color="#8c0c01"/><stop offset=".54" stop-color="#990c00"/><stop offset=".99" stop-color="#a80d0e"/><stop offset="1" stop-color="#a80d0e"/></linearGradient><linearGradient id="l" x1="90.106" x2="67.544" y1="58.303" y2="42.277" gradientUnits="userSpaceOnUse"><stop stop-color="#7e110b"/><stop offset=".99" stop-color="#9e0c00"/><stop offset="1" stop-color="#9e0c00"/></linearGradient><linearGradient id="m" x1="97.726" x2="87.116" y1="24.194" y2="13.424" gradientUnits="userSpaceOnUse"><stop stop-color="#79130d"/><stop offset=".99" stop-color="#9e120b"/><stop offset="1" stop-color="#9e120b"/></linearGradient><linearGradient id="p" x1="13.461" x2="-5.562" y1="99.6" y2="83.809" gradientUnits="userSpaceOnUse"><stop stop-color="#8b2114"/><stop offset=".43" stop-color="#9e100a"/><stop offset=".99" stop-color="#b3100c"/><stop offset="1" stop-color="#b3100c"/></linearGradient><linearGradient id="q" x1="78.051" x2="83.45" y1="4.945" y2="18.604" gradientUnits="userSpaceOnUse"><stop stop-color="#b31000"/><stop offset=".44" stop-color="#910f08"/><stop offset=".99" stop-color="#791c12"/><stop offset="1" stop-color="#791c12"/></linearGradient><radialGradient id="n" cx="0" cy="0" r="1" gradientTransform="matrix(25.4167 0 0 13.2811 72.595 40.069)" gradientUnits="userSpaceOnUse"><stop stop-color="#a80d00"/><stop offset=".99" stop-color="#7e0e08"/><stop offset="1" stop-color="#7e0e08"/></radialGradient><radialGradient id="o" cx="0" cy="0" r="1" gradientTransform="matrix(33.7877 0 0 26.3022 37.396 73.564)" gradientUnits="userSpaceOnUse"><stop stop-color="#a30c00"/><stop offset=".99" stop-color="#800e08"/><stop offset="1" stop-color="#800e08"/></radialGradient><clipPath id="a"><path fill="#fff" d="M0 0h100v100H0z"/></clipPath></defs></svg>